<?xml version="1.0" encoding="UTF-8" standalone="no"?>
<!-- Created with Inkscape (http://www.inkscape.org/) -->

<svg
   xmlns:dc="http://purl.org/dc/elements/1.1/"
   xmlns:cc="http://creativecommons.org/ns#"
   xmlns:rdf="http://www.w3.org/1999/02/22-rdf-syntax-ns#"
   xmlns:svg="http://www.w3.org/2000/svg"
   xmlns="http://www.w3.org/2000/svg"
   xmlns:sodipodi="http://sodipodi.sourceforge.net/DTD/sodipodi-0.dtd"
   xmlns:inkscape="http://www.inkscape.org/namespaces/inkscape"
   width="1200"
   height="800"
   viewBox="0 0 317.49999 211.66667"
   version="1.1"
   id="svg8"
   inkscape:version="0.92.4 (5da689c313, 2019-01-14)"
   sodipodi:docname="bacgkround-home.svg">
  <defs
     id="defs2" />
  <sodipodi:namedview
     id="base"
     pagecolor="#ffffff"
     bordercolor="#666666"
     borderopacity="1.0"
     inkscape:pageopacity="0.0"
     inkscape:pageshadow="2"
     inkscape:zoom="0.25"
     inkscape:cx="1005.5666"
     inkscape:cy="108.90937"
     inkscape:document-units="px"
     inkscape:current-layer="layer1"
     showgrid="false"
     units="px"
     showborder="false"
     fit-margin-top="0"
     fit-margin-left="0"
     fit-margin-right="0"
     fit-margin-bottom="0"
     inkscape:window-width="1280"
     inkscape:window-height="747"
     inkscape:window-x="-8"
     inkscape:window-y="-8"
     inkscape:window-maximized="1" />
  <metadata
     id="metadata5">
    <rdf:RDF>
      <cc:Work
         rdf:about="">
        <dc:format>image/svg+xml</dc:format>
        <dc:type
           rdf:resource="http://purl.org/dc/dcmitype/StillImage" />
        <dc:title></dc:title>
      </cc:Work>
    </rdf:RDF>
  </metadata>
  <g
     inkscape:label="Layer 1"
     inkscape:groupmode="layer"
     id="layer1"
     transform="translate(-5.2916663,30.289624)">
    <g
       id="g876">
      <path
         transform="scale(0.26458333)"
         id="path40"
         d="m 327.21875,-114.48047 a 247.48309,247.48309 0 0 1 7.71289,23.216798 247.48309,247.48309 0 0 1 5.41797,24.136719 247.48309,247.48309 0 0 1 2.98047,24.556641 247.48309,247.48309 0 0 1 0.61914,17.505859 247.48309,247.48309 0 0 1 -1.23438,24.70703112 247.48309,247.48309 0 0 1 -3.69726,24.46093788 247.48309,247.48309 0 0 1 -6.1211,23.96875 247.48309,247.48309 0 0 1 -8.48242,23.238281 247.48309,247.48309 0 0 1 -10.75976,22.275391 247.48309,247.48309 0 0 1 -12.93164,21.089842 247.48309,247.48309 0 0 1 -14.97071,19.69336 247.48309,247.48309 0 0 1 -16.86133,18.10156 247.48309,247.48309 0 0 1 -18.58398,16.32618 247.48309,247.48309 0 0 1 -20.12305,14.38867 247.48309,247.48309 0 0 0 -0.002,0 247.48309,247.48309 0 0 1 -21.45703,12.31054 247.48309,247.48309 0 0 1 -22.58008,10.10352 247.48309,247.48309 0 0 1 -23.47656,7.80078 247.48309,247.48309 0 0 1 -24.13672,5.41797 247.48309,247.48309 0 0 1 -24.55664,2.98047 247.48309,247.48309 0 0 1 -17.50586,0.62109 247.48309,247.48309 0 0 1 -24.707031,-1.23633 247.48309,247.48309 0 0 0 -0.002,0 247.48309,247.48309 0 0 1 -24.460938,-3.69726 247.48309,247.48309 0 0 1 -23.96875,-6.1211 A 247.48309,247.48309 0 0 1 20,210.15039 v 475.36914 h 1018.0371 a 226.17366,226.17366 0 0 1 0.051,-0.19531 h -4.8399 a 264.20037,264.20037 0 0 1 2.1172,-8.29102 264.20037,264.20037 0 0 1 9.0547,-24.80664 264.20037,264.20037 0 0 1 11.4883,-23.78125 264.20037,264.20037 0 0 0 0,-0.002 264.20037,264.20037 0 0 1 13.8047,-22.51367 264.20037,264.20037 0 0 1 15.9824,-21.02149 264.20037,264.20037 0 0 1 18.002,-19.32422 264.20037,264.20037 0 0 1 19.8398,-17.42773 264.20037,264.20037 0 0 0 0,-0.002 264.20037,264.20037 0 0 1 21.4824,-15.36328 264.20037,264.20037 0 0 1 22.9063,-13.13868 264.20037,264.20037 0 0 1 24.1054,-10.78711 264.20037,264.20037 0 0 1 25.0606,-8.32617 264.20037,264.20037 0 0 1 2.9062,-0.65234 v -614.36719 z"
         style="opacity:1;fill:#ffffff;fill-opacity:0.94117647;stroke:none;stroke-width:2.32685328;stroke-miterlimit:4;stroke-dasharray:none;stroke-opacity:1"
         inkscape:connector-curvature="0" />
      <g
         transform="matrix(1.1155586,0,0,1.1155586,-0.61149785,3.500228)"
         id="g855">
        <path
           inkscape:connector-curvature="0"
           style="opacity:1;fill:#008c85;fill-opacity:1;stroke:none;stroke-width:2.32685328;stroke-miterlimit:4;stroke-dasharray:none;stroke-opacity:1"
           d="m 20,210.15039 a 247.48309,247.48309 0 0 0 3.330078,1.21484 247.48309,247.48309 0 0 0 23.96875,6.1211 247.48309,247.48309 0 0 0 24.460938,3.69726 247.48309,247.48309 0 0 0 0.002,0 247.48309,247.48309 0 0 0 24.707031,1.23633 247.48309,247.48309 0 0 0 17.505863,-0.62109 247.48309,247.48309 0 0 0 24.55664,-2.98047 247.48309,247.48309 0 0 0 24.13672,-5.41797 247.48309,247.48309 0 0 0 23.47656,-7.80078 247.48309,247.48309 0 0 0 22.58008,-10.10352 247.48309,247.48309 0 0 0 21.45703,-12.31054 247.48309,247.48309 0 0 0 0.002,0 247.48309,247.48309 0 0 0 20.12305,-14.38867 247.48309,247.48309 0 0 0 18.58398,-16.32618 247.48309,247.48309 0 0 0 16.86133,-18.10156 247.48309,247.48309 0 0 0 14.97071,-19.69336 247.48309,247.48309 0 0 0 12.93164,-21.089842 247.48309,247.48309 0 0 0 10.75976,-22.275391 247.48309,247.48309 0 0 0 8.48242,-23.238281 247.48309,247.48309 0 0 0 6.1211,-23.96875 247.48309,247.48309 0 0 0 3.69726,-24.46093788 247.48309,247.48309 0 0 0 1.23438,-24.70703112 247.48309,247.48309 0 0 0 -0.61914,-17.505859 247.48309,247.48309 0 0 0 -2.98047,-24.556641 247.48309,247.48309 0 0 0 -5.41797,-24.136719 247.48309,247.48309 0 0 0 -7.71289,-23.216798 h -31.82422 a 226.17366,226.17366 0 0 1 8.84766,19.767579 226.17366,226.17366 0 0 1 7.12695,21.455079 226.17366,226.17366 0 0 1 4.95313,22.058593 226.17366,226.17366 0 0 1 2.72265,22.44336 226.17366,226.17366 0 0 1 0.56641,15.998047 226.17366,226.17366 0 0 1 -1.12891,22.5800776 226.17366,226.17366 0 0 1 -3.3789,22.3535154 226.17366,226.17366 0 0 1 -5.59375,21.90625 226.17366,226.17366 0 0 1 -7.75196,21.236328 226.17366,226.17366 0 0 1 -9.83398,20.357422 226.17366,226.17366 0 0 1 -11.81641,19.273439 226.17366,226.17366 0 0 1 -13.68164,17.99805 226.17366,226.17366 0 0 1 -15.41016,16.54296 226.17366,226.17366 0 0 1 -16.98437,14.91993 226.17366,226.17366 0 0 1 -18.39063,13.15039 226.17366,226.17366 0 0 1 -19.61132,11.25 226.17366,226.17366 0 0 1 -20.63477,9.23437 226.17366,226.17366 0 0 1 -21.45508,7.12891 226.17366,226.17366 0 0 1 -22.05859,4.95117 226.17366,226.17366 0 0 1 -22.44336,2.72461 226.17366,226.17366 0 0 1 -15.99805,0.56641 A 226.17366,226.17366 0 0 1 70.859375,212.28711 226.17366,226.17366 0 0 1 48.503906,208.9082 226.17366,226.17366 0 0 1 26.599609,203.31445 226.17366,226.17366 0 0 1 20,200.90625 Z"
           id="path24"
           transform="scale(0.26458333)" />
        <path
           inkscape:connector-curvature="0"
           style="opacity:1;fill:#00e389;fill-opacity:0.94117647;stroke:none;stroke-width:2.32685328;stroke-miterlimit:4;stroke-dasharray:none;stroke-opacity:1"
           d="m 20,200.90625 a 226.17366,226.17366 0 0 0 6.599609,2.4082 226.17366,226.17366 0 0 0 21.904297,5.59375 226.17366,226.17366 0 0 0 22.355469,3.37891 226.17366,226.17366 0 0 0 22.580078,1.12891 226.17366,226.17366 0 0 0 15.998047,-0.56641 226.17366,226.17366 0 0 0 22.44336,-2.72461 226.17366,226.17366 0 0 0 22.05859,-4.95117 226.17366,226.17366 0 0 0 21.45508,-7.12891 226.17366,226.17366 0 0 0 20.63477,-9.23437 226.17366,226.17366 0 0 0 19.61132,-11.25 226.17366,226.17366 0 0 0 18.39063,-13.15039 226.17366,226.17366 0 0 0 16.98437,-14.91993 226.17366,226.17366 0 0 0 15.41016,-16.54296 226.17366,226.17366 0 0 0 13.68164,-17.99805 226.17366,226.17366 0 0 0 11.81641,-19.273439 226.17366,226.17366 0 0 0 9.83398,-20.357422 226.17366,226.17366 0 0 0 7.75196,-21.236328 226.17366,226.17366 0 0 0 5.59375,-21.90625 226.17366,226.17366 0 0 0 3.3789,-22.3535154 226.17366,226.17366 0 0 0 1.12891,-22.5800776 226.17366,226.17366 0 0 0 -0.56641,-15.998047 226.17366,226.17366 0 0 0 -2.72265,-22.44336 226.17366,226.17366 0 0 0 -4.95313,-22.058593 226.17366,226.17366 0 0 0 -7.12695,-21.455079 226.17366,226.17366 0 0 0 -8.84766,-19.767579 H 20 Z"
           id="rect12"
           transform="scale(0.26458333)" />
      </g>
      <g
         id="g867">
        <path
           style="opacity:1;fill:#008c85;fill-opacity:1;stroke:none;stroke-width:2.32685328;stroke-miterlimit:4;stroke-dasharray:none;stroke-opacity:1"
           d="m 1220,499.88672 a 264.20037,264.20037 0 0 0 -2.9062,0.65234 264.20037,264.20037 0 0 0 -25.0606,8.32617 264.20037,264.20037 0 0 0 -24.1054,10.78711 264.20037,264.20037 0 0 0 -22.9063,13.13868 264.20037,264.20037 0 0 0 -21.4824,15.36328 264.20037,264.20037 0 0 0 0,0.002 264.20037,264.20037 0 0 0 -19.8398,17.42773 264.20037,264.20037 0 0 0 -18.002,19.32422 264.20037,264.20037 0 0 0 -15.9824,21.02149 264.20037,264.20037 0 0 0 -13.8047,22.51367 264.20037,264.20037 0 0 0 0,0.002 264.20037,264.20037 0 0 0 -11.4883,23.78125 264.20037,264.20037 0 0 0 -9.0547,24.80664 264.20037,264.20037 0 0 0 -2.1172,8.29102 h 4.8399 a 226.17366,226.17366 0 0 1 1.7617,-6.90234 226.17366,226.17366 0 0 1 7.752,-21.23633 226.17366,226.17366 0 0 1 9.8339,-20.35743 226.17366,226.17366 0 0 1 11.8184,-19.27539 226.17366,226.17366 0 0 1 13.6816,-17.99609 226.17366,226.17366 0 0 1 15.4102,-16.54297 226.17366,226.17366 0 0 1 16.9844,-14.91992 226.17366,226.17366 0 0 1 18.3906,-13.15234 226.17366,226.17366 0 0 1 19.6094,-11.24805 226.17366,226.17366 0 0 1 20.6367,-9.23438 226.17366,226.17366 0 0 1 21.4551,-7.1289 226.17366,226.17366 0 0 1 22.0586,-4.95117 226.17366,226.17366 0 0 1 2.5195,-0.30664 z"
           id="path46"
           transform="scale(0.26458333)"
           inkscape:connector-curvature="0" />
        <path
           style="opacity:1;fill:#00e389;fill-opacity:0.94117647;stroke:none;stroke-width:0.6156466;stroke-miterlimit:4;stroke-dasharray:none;stroke-opacity:1"
           d="m 322.79166,138.13165 a 59.84178,59.84178 0 0 0 -0.66662,0.0811 59.84178,59.84178 0 0 0 -5.83634,1.31 59.84178,59.84178 0 0 0 -5.67666,1.88619 59.84178,59.84178 0 0 0 -5.46013,2.44326 59.84178,59.84178 0 0 0 -5.18832,2.97605 59.84178,59.84178 0 0 0 -4.86584,3.47989 59.84178,59.84178 0 0 0 -4.49379,3.94756 59.84178,59.84178 0 0 0 -4.07729,4.37699 59.84178,59.84178 0 0 0 -3.61992,4.76147 59.84178,59.84178 0 0 0 -3.12695,5.09994 59.84178,59.84178 0 0 0 -2.60189,5.38624 59.84178,59.84178 0 0 0 -2.05105,5.61878 59.84178,59.84178 0 0 0 -0.47955,1.87792 h 48.14435 z"
           id="path27"
           inkscape:connector-curvature="0" />
      </g>
    </g>
  </g>
</svg>
