<?xml version="1.0" encoding="UTF-8" standalone="no"?>
<!-- Created with Inkscape (http://www.inkscape.org/) -->

<svg
   xmlns:dc="http://purl.org/dc/elements/1.1/"
   xmlns:cc="http://creativecommons.org/ns#"
   xmlns:rdf="http://www.w3.org/1999/02/22-rdf-syntax-ns#"
   xmlns:svg="http://www.w3.org/2000/svg"
   xmlns="http://www.w3.org/2000/svg"
   xmlns:sodipodi="http://sodipodi.sourceforge.net/DTD/sodipodi-0.dtd"
   xmlns:inkscape="http://www.inkscape.org/namespaces/inkscape"
   width="1105.915"
   height="787.55731"
   viewBox="0 0 292.60668 208.37454"
   version="1.1"
   id="svg8"
   inkscape:version="0.92.4 (5da689c313, 2019-01-14)"
   sodipodi:docname="bg.svg">
  <defs
     id="defs2">
    <inkscape:path-effect
       effect="spiro"
       id="path-effect5803"
       is_visible="true" />
  </defs>
  <sodipodi:namedview
     id="base"
     pagecolor="#ffffff"
     bordercolor="#666666"
     borderopacity="1.0"
     inkscape:pageopacity="0.0"
     inkscape:pageshadow="2"
     inkscape:zoom="0.35355339"
     inkscape:cx="-100.29476"
     inkscape:cy="252.6573"
     inkscape:document-units="px"
     inkscape:current-layer="layer1"
     showgrid="false"
     units="px"
     showborder="false"
     inkscape:snap-bbox="true"
     inkscape:snap-intersection-paths="true"
     inkscape:object-paths="true"
     fit-margin-top="0"
     fit-margin-left="0"
     fit-margin-right="0"
     fit-margin-bottom="0"
     inkscape:window-width="1280"
     inkscape:window-height="747"
     inkscape:window-x="-8"
     inkscape:window-y="-8"
     inkscape:window-maximized="1" />
  <metadata
     id="metadata5">
    <rdf:RDF>
      <cc:Work
         rdf:about="">
        <dc:format>image/svg+xml</dc:format>
        <dc:type
           rdf:resource="http://purl.org/dc/dcmitype/StillImage" />
        <dc:title />
      </cc:Work>
    </rdf:RDF>
  </metadata>
  <g
     inkscape:label="Layer 1"
     inkscape:groupmode="layer"
     id="layer1"
     transform="translate(-38.622222,-122.46294)">
    <path
       style="fill:none;stroke:#000000;stroke-width:0.26458332px;stroke-linecap:butt;stroke-linejoin:miter;stroke-opacity:1"
       d="M 346.075,238.79165 Z"
       id="path5805"
       inkscape:connector-curvature="0" />
    <path
       style="opacity:0.5;fill:#00ffff;fill-opacity:1;stroke:none;stroke-width:1.99742818;stroke-miterlimit:4;stroke-dasharray:none;stroke-opacity:0.94117647"
       d="M 38.622222,211.68313 V 122.46294 H 184.92556 331.2289 v 50.91838 50.91835 l -1.64139,4.18925 c -2.39627,6.116 -5.71558,10.90367 -10.87046,15.67932 -8.62288,7.98847 -17.66853,11.62493 -30.03027,12.07248 -7.85604,0.28441 -7.61507,0.31885 -26.28616,-3.75586 -6.99112,-1.52573 -15.5976,-1.66843 -20.48982,-0.33975 -4.95948,1.34696 -9.97775,4.55116 -19.21045,12.26595 -9.13944,7.63687 -14.4583,10.76985 -19.99821,11.77958 -8.82877,1.60915 -14.04085,-1.04646 -22.7507,-11.59173 -2.9711,-3.5972 -6.74564,-7.48771 -8.38786,-8.6456 -4.22721,-2.98045 -9.60057,-4.29481 -15.64037,-3.82571 -11.4216,0.88711 -21.24888,8.26217 -33.04192,24.79696 -9.76247,13.68774 -14.88333,17.53788 -23.385813,17.5827 -6.034732,0.0319 -8.420986,-1.42516 -14.082805,-8.59855 -5.454855,-6.91117 -8.808607,-8.99912 -15.220766,-9.47595 -11.421598,-0.84936 -22.226486,6.54177 -29.241352,20.00267 l -2.328332,4.46786 z"
       id="path5830"
       inkscape:connector-curvature="0" />
  </g>
</svg>
