<?xml version="1.0" encoding="UTF-8" standalone="no"?>
<!-- Created with Inkscape (http://www.inkscape.org/) -->

<svg
   xmlns:dc="http://purl.org/dc/elements/1.1/"
   xmlns:cc="http://creativecommons.org/ns#"
   xmlns:rdf="http://www.w3.org/1999/02/22-rdf-syntax-ns#"
   xmlns:svg="http://www.w3.org/2000/svg"
   xmlns="http://www.w3.org/2000/svg"
   xmlns:sodipodi="http://sodipodi.sourceforge.net/DTD/sodipodi-0.dtd"
   xmlns:inkscape="http://www.inkscape.org/namespaces/inkscape"
   width="300.52759"
   height="300"
   viewBox="0 0 79.514589 79.375"
   version="1.1"
   id="svg860"
   inkscape:version="0.92.4 (5da689c313, 2019-01-14)"
   sodipodi:docname="brand.svg.2019_11_19_10_16_40.0.svg">
  <defs
     id="defs854">
    <inkscape:path-effect
       effect="spiro"
       id="path-effect981"
       is_visible="true" />
    <inkscape:path-effect
       effect="spiro"
       id="path-effect970"
       is_visible="true" />
    <inkscape:path-effect
       effect="spiro"
       id="path-effect958"
       is_visible="true" />
    <inkscape:path-effect
       effect="bspline"
       id="path-effect54"
       is_visible="true"
       weight="33.333333"
       steps="2"
       helper_size="0"
       apply_no_weight="true"
       apply_with_weight="true"
       only_selected="false" />
    <inkscape:path-effect
       effect="bspline"
       id="path-effect47"
       is_visible="true"
       weight="33.333333"
       steps="2"
       helper_size="0"
       apply_no_weight="true"
       apply_with_weight="true"
       only_selected="false" />
  </defs>
  <sodipodi:namedview
     id="base"
     pagecolor="#ffffff"
     bordercolor="#666666"
     borderopacity="1.0"
     inkscape:pageopacity="0.0"
     inkscape:pageshadow="2"
     inkscape:zoom="0.49497475"
     inkscape:cx="288.02635"
     inkscape:cy="98.351891"
     inkscape:document-units="px"
     inkscape:current-layer="g37"
     showgrid="false"
     inkscape:window-width="1280"
     inkscape:window-height="747"
     inkscape:window-x="-8"
     inkscape:window-y="-8"
     inkscape:window-maximized="1"
     fit-margin-top="0"
     fit-margin-left="0"
     fit-margin-right="0"
     fit-margin-bottom="0"
     units="px"
     showborder="false"
     inkscape:snap-intersection-paths="true"
     inkscape:object-paths="true"
     inkscape:snap-bbox="true"
     inkscape:snap-bbox-edge-midpoints="false"
     inkscape:bbox-nodes="false"
     inkscape:snap-bbox-midpoints="false" />
  <metadata
     id="metadata857">
    <rdf:RDF>
      <cc:Work
         rdf:about="">
        <dc:format>image/svg+xml</dc:format>
        <dc:type
           rdf:resource="http://purl.org/dc/dcmitype/StillImage" />
        <dc:title></dc:title>
      </cc:Work>
    </rdf:RDF>
  </metadata>
  <g
     inkscape:label="Layer 1"
     inkscape:groupmode="layer"
     id="layer1"
     transform="translate(-7.6200458,-29.436311)">
    <g
       id="g1579">
      <g
         aria-label="G"
         style="font-style:normal;font-variant:normal;font-weight:500;font-stretch:normal;font-size:10.58333302px;line-height:1.25;font-family:'Yu Gothic';-inkscape-font-specification:'Yu Gothic, Medium';font-variant-ligatures:normal;font-variant-caps:normal;font-variant-numeric:normal;font-feature-settings:normal;text-align:start;letter-spacing:0px;word-spacing:0px;writing-mode:lr-tb;text-anchor:start;fill:#000000;fill-opacity:1;stroke:none;stroke-width:0.26458332"
         id="text40">
        <g
           aria-label="G"
           style="font-style:normal;font-weight:normal;font-size:10.58333302px;line-height:1.25;font-family:sans-serif;letter-spacing:0px;word-spacing:0px;fill:#000000;fill-opacity:1;stroke:none;stroke-width:0.07000434"
           id="text914"
           transform="translate(-11.1125,-4.2333328)">
          <g
             id="g30"
             transform="translate(-75.904545,1.0690781)">
            <g
               id="g872">
              <g
                 style="fill:#00e389;fill-opacity:1"
                 id="g37">
                <g
                   id="g933"
                   transform="matrix(0.98653601,0,0,0.98653601,25.004584,18.646254)">
                  <g
                     style="font-style:normal;font-variant:normal;font-weight:normal;font-stretch:normal;font-size:10.58333302px;line-height:1.25;font-family:sans-serif;-inkscape-font-specification:'Yu Gothic, Medium';font-variant-ligatures:normal;font-variant-caps:normal;font-variant-numeric:normal;font-feature-settings:normal;text-align:start;letter-spacing:0px;word-spacing:0px;writing-mode:lr-tb;text-anchor:start;fill:#b3b3b3;fill-opacity:1;stroke:none;stroke-width:0.07000434"
                     id="g49"
                     transform="translate(1.0583326,1.0583336)">
                    <path
                       transform="matrix(0.26458333,0,0,0.26458333,85.334446,45.473228)"
                       d="m 94.886719,-118.3125 a 150,150 0 0 0 -150,150 150,150 0 0 0 150,150 A 150,150 0 0 0 244.875,32 h -75.00391 a 75.000001,75.000001 0 0 1 -74.984371,74.6875 75.000001,75.000001 0 0 1 -75,-75 75.000001,75.000001 0 0 1 75,-75 75.000001,75.000001 0 0 1 37.841801,10.431641 l 37.40429,-64.789063 A 150,150 0 0 0 94.886719,-118.3125 Z"
                       id="path39"
                       style="opacity:1;fill:#b3b3b3;fill-opacity:1;stroke:none;stroke-width:0.60024011;stroke-miterlimit:4;stroke-dasharray:none;stroke-opacity:1"
                       inkscape:original="M 94.886719 -118.3125 A 150 150 0 0 0 -55.113281 31.6875 A 150 150 0 0 0 94.886719 181.6875 A 150 150 0 0 0 244.875 32 L 169.87109 32 A 75.000001 75.000001 0 0 1 94.886719 106.6875 A 75.000001 75.000001 0 0 1 19.886719 31.6875 A 75.000001 75.000001 0 0 1 94.886719 -43.3125 A 75.000001 75.000001 0 0 1 132.72852 -32.880859 L 170.13281 -97.669922 A 150 150 0 0 0 94.886719 -118.3125 z "
                       inkscape:radius="0"
                       sodipodi:type="inkscape:offset" />
                    <g
                       style="fill:#b3b3b3"
                       id="g41" />
                    <path
                       style="opacity:1;fill:#b3b3b3;fill-opacity:1;stroke:none;stroke-width:0.42220742;stroke-miterlimit:4;stroke-dasharray:none;stroke-opacity:1"
                       id="path43"
                       r="9.921875"
                       cy="59.545753"
                       cx="99.722717"
                       inkscape:connector-curvature="0"
                       d="" />
                    <circle
                       style="opacity:1;fill:#b3b3b3;fill-opacity:1;stroke:none;stroke-width:0.42220742;stroke-miterlimit:4;stroke-dasharray:none;stroke-opacity:1"
                       id="circle45"
                       cx="110.43834"
                       cy="53.857212"
                       r="9.921875" />
                    <path
                       id="path47"
                       transform="matrix(0.26458333,0,0,0.26458333,74.618821,51.16177)"
                       d="M 130.8418,-139.90625 C 35.696885,-140.18915 -39.568419,-35.799503 -7.9140625,54.515625 17.32159,148.47374 141.90866,191.92907 220.08203,133.98047 259.1346,108.36329 290.23417,53.594835 282.83008,10.5 h 2.46484 A 37.5,37.5 0 0 0 247.82617,-26.115234 37.5,37.5 0 0 0 210.37109,10.5 C 212.0051,59.016084 158.9758,97.860461 113.22266,81.837891 66.243283,69.219722 44.516778,6.9283835 73.486328,-32.160156 93.589597,-66.894131 141.99414,-69.646603 172.40039,-57.449219 l -1.22266,1.972657 a 37.5,37.5 0 0 0 50.85938,-12.572266 37.5,37.5 0 0 0 -11.4043,-51.121092 c -22.68174,-13.35448 -48.92777,-20.55365 -75.24609,-20.64258 -1.51991,-0.0577 -3.03469,-0.0893 -4.54492,-0.0937 z"
                       style="opacity:1;fill:#b3b3b3;fill-opacity:1;stroke:none;stroke-width:0.60024011;stroke-miterlimit:4;stroke-dasharray:none;stroke-opacity:1"
                       inkscape:connector-curvature="0" />
                  </g>
                  <g
                     id="g913">
                    <path
                       transform="matrix(0.26458333,0,0,0.26458333,85.334446,45.473228)"
                       d="m 94.886719,-118.3125 a 150,150 0 0 0 -150,150 150,150 0 0 0 150,150 A 150,150 0 0 0 244.875,32 h -75.00391 a 75.000001,75.000001 0 0 1 -74.984371,74.6875 75.000001,75.000001 0 0 1 -75,-75 75.000001,75.000001 0 0 1 75,-75 75.000001,75.000001 0 0 1 37.841801,10.431641 l 37.40429,-64.789063 A 150,150 0 0 0 94.886719,-118.3125 Z"
                       id="path919"
                       style="opacity:1;fill:#00e389;fill-opacity:1;stroke:none;stroke-width:0.60024011;stroke-miterlimit:4;stroke-dasharray:none;stroke-opacity:1"
                       inkscape:original="M 94.886719 -118.3125 A 150 150 0 0 0 -55.113281 31.6875 A 150 150 0 0 0 94.886719 181.6875 A 150 150 0 0 0 244.875 32 L 169.87109 32 A 75.000001 75.000001 0 0 1 94.886719 106.6875 A 75.000001 75.000001 0 0 1 19.886719 31.6875 A 75.000001 75.000001 0 0 1 94.886719 -43.3125 A 75.000001 75.000001 0 0 1 132.72852 -32.880859 L 170.13281 -97.669922 A 150 150 0 0 0 94.886719 -118.3125 z "
                       inkscape:radius="0"
                       sodipodi:type="inkscape:offset" />
                    <g
                       style="fill:#00e389;fill-opacity:1"
                       id="g962" />
                    <path
                       style="opacity:1;fill:#00e389;fill-opacity:1;stroke:none;stroke-width:0.42220742;stroke-miterlimit:4;stroke-dasharray:none;stroke-opacity:1"
                       id="path49"
                       r="9.921875"
                       cy="59.545753"
                       cx="99.722717"
                       inkscape:connector-curvature="0"
                       d="" />
                    <circle
                       style="opacity:1;fill:#00e389;fill-opacity:1;stroke:none;stroke-width:0.42220742;stroke-miterlimit:4;stroke-dasharray:none;stroke-opacity:1"
                       id="circle51"
                       cx="110.43834"
                       cy="53.857212"
                       r="9.921875" />
                    <path
                       id="path59"
                       transform="matrix(0.26458333,0,0,0.26458333,74.618821,51.16177)"
                       d="M 130.8418,-139.90625 C 35.696885,-140.18915 -39.568419,-35.799503 -7.9140625,54.515625 17.32159,148.47374 141.90866,191.92907 220.08203,133.98047 259.1346,108.36329 290.23417,53.594835 282.83008,10.5 h 2.46484 A 37.5,37.5 0 0 0 247.82617,-26.115234 37.5,37.5 0 0 0 210.37109,10.5 C 212.0051,59.016084 158.9758,97.860461 113.22266,81.837891 66.243283,69.219722 44.516778,6.9283835 73.486328,-32.160156 93.589597,-66.894131 141.99414,-69.646603 172.40039,-57.449219 l -1.22266,1.972657 a 37.5,37.5 0 0 0 50.85938,-12.572266 37.5,37.5 0 0 0 -11.4043,-51.121092 c -22.68174,-13.35448 -48.92777,-20.55365 -75.24609,-20.64258 -1.51991,-0.0577 -3.03469,-0.0893 -4.54492,-0.0937 z"
                       style="opacity:1;fill:#00e389;fill-opacity:1;stroke:none;stroke-width:0.60024011;stroke-miterlimit:4;stroke-dasharray:none;stroke-opacity:1"
                       inkscape:connector-curvature="0" />
                  </g>
                </g>
              </g>
            </g>
          </g>
        </g>
      </g>
    </g>
  </g>
</svg>
